<svg width="347" height="347" viewBox="0 0 347 347" fill="none" xmlns="http://www.w3.org/2000/svg">
<circle cx="173.241" cy="173.241" r="122.5" transform="rotate(45 173.241 173.241)" fill="#1D1C29"/>
<path d="M259 173.5C259 153.629 252.079 134.379 239.426 119.058L234.459 123.159C246.159 137.327 252.558 155.126 252.558 173.5H259Z" fill="#F3F2F5"/>
<path d="M201.038 254.245C220.326 247.629 236.619 234.347 246.986 216.789L241.245 213.399C231.685 229.591 216.661 241.838 198.875 247.939L201.038 254.245Z" fill="#F3F2F5"/>
<path d="M104.405 224.146C116.44 240.429 133.855 251.921 153.56 256.58L155.1 250.066C136.936 245.772 120.881 235.179 109.788 220.168L104.405 224.146Z" fill="#F3F2F5"/>
<path d="M102.909 124.463C91.5849 140.789 86.2916 160.545 87.9361 180.346L94.2235 179.824C92.7001 161.482 97.6034 143.182 108.093 128.059L102.909 124.463Z" fill="#F3F2F5"/>
<path d="M202.532 92.8017C183.593 85.911 162.83 85.9225 143.898 92.8341L145.985 98.5501C163.571 92.1297 182.858 92.119 200.452 98.5199L202.532 92.8017Z" fill="#F3F2F5"/>
<path d="M155.682 138.182L172.557 191.227H173.205L190.114 138.182H206.477L182.409 208H163.386L139.284 138.182H155.682Z" fill="#F3F2F5"/>
</svg>
